<svg width="467" height="463" viewBox="0 0 467 463" fill="none" xmlns="http://www.w3.org/2000/svg">
<path d="M381.553 3.5C382.644 3.5 384.302 3.49851 386.598 4.13281C388.84 4.7525 391.543 5.93306 394.969 8.09277C401.773 12.3821 411.75 20.7417 427.053 37.0312L427.06 37.0381C440.996 51.9541 455.668 69.5968 460.42 77.4678C464.616 83.8408 462.177 91.8369 455.973 96.1758L455.939 96.1992L455.907 96.2207C453.853 97.5891 451.682 98.3047 448.973 98.3047C444.03 98.3047 440.048 95.4697 437.571 91.7588L437.519 91.6797L437.471 91.5977C434.424 86.4477 426.412 76.5847 416.962 66.0195C409.755 57.9615 401.873 49.6753 395.041 43.0381V263.928C395.041 289.864 389.444 315.761 379.794 339.101L379.793 339.1C370.628 361.477 356.387 383.316 337.582 402.102C300.474 439.172 251.643 459.5 199.271 459.5C91.4673 459.5 3.5 371.629 3.5 263.928C3.50003 156.227 91.4673 68.3555 199.271 68.3555H246.714C254.137 68.3555 260.202 74.409 260.202 81.833C260.202 89.2572 254.137 95.3115 246.714 95.3115H199.271C106.313 95.3116 30.4766 171.075 30.4766 263.928C30.4766 356.78 106.313 432.545 199.271 432.545C244.289 432.545 286.814 414.955 318.096 382.24L318.143 382.191L318.19 382.145C334.324 366.516 347.028 347.471 354.832 327.981L354.848 327.941L354.864 327.902C363.659 307.402 368.065 284.924 368.065 262.93V41.9297C361.109 48.606 353.188 57.0228 345.972 65.1924C336.668 75.7252 328.78 85.5666 325.662 90.5586C321.986 97.6476 313.66 98.4807 307.575 95.4414C300.632 91.9735 298.638 83.1198 302.688 76.9648C307.441 69.0922 322.113 51.4529 336.047 36.5391L336.06 36.5264L336.072 36.5127C351.376 20.4725 361.355 12.2408 368.158 8.01758C371.584 5.8912 374.284 4.73093 376.522 4.12207C378.811 3.49936 380.463 3.5 381.553 3.5ZM209.758 153.167C216.046 153.167 221.748 158.089 221.748 165.147V176.622C221.748 176.687 221.761 176.779 221.799 176.882C221.835 176.979 221.883 177.058 221.927 177.113H222.074L222.398 177.175C233.712 179.328 242.386 184.752 249.357 192.787L249.403 192.84L249.446 192.894C253.816 198.35 257.026 205.346 258.626 212.806L258.636 212.853C260.571 222.517 252.903 232.007 242.719 232.007H241.72C234.054 232.007 227.711 226.857 225.84 219.379L225.828 219.334L225.818 219.289C224.901 215.167 223.591 212.239 221.553 209.795L221.53 209.769L221.509 209.741C218.096 205.479 213.565 203.071 208.26 203.071C201.951 203.071 197.491 204.853 194.832 207.457C191.972 210.763 190.285 214.896 190.285 220.524C190.285 225.715 192.002 229.768 194.753 232.516C197.966 235.725 203.338 238.811 212.109 242.021L213.91 242.664L213.934 242.673L213.958 242.682C229.089 248.224 240.629 254.415 248.157 261.92C256.493 269.723 260.202 280.216 260.202 293.362C260.202 306.509 256.493 317 248.157 324.804C241.046 331.892 231.387 336.098 220.032 338.184C219.671 338.285 219.505 338.428 219.438 338.509C219.389 338.568 219.251 338.75 219.251 339.26V347.741C219.251 354.032 214.318 359.723 207.261 359.723C200.973 359.722 195.272 354.8 195.271 347.741V339.26C195.271 338.848 194.863 338.312 194.477 338.181C183.055 336.081 173.461 331.855 165.421 324.358L165.377 324.317L165.335 324.275C159.837 318.783 156.069 311.721 153.939 303.744L153.932 303.718L153.926 303.69C151.372 293.486 159.052 283.876 169.307 283.876H169.806C177.316 283.876 183.87 288.902 185.224 296.167L185.394 296.954C186.231 300.547 187.679 303.034 190.04 305.209L190.561 305.67L190.592 305.698L190.624 305.727C194.86 309.535 199.965 311.314 206.762 311.314C214.208 311.314 219.275 309.455 222.437 306.691C225.66 303.874 227.732 299.851 227.732 294.36C227.732 289.241 226.061 285.161 222.766 281.869C219.331 278.438 213.436 275.161 204.657 272.237C189.406 267.159 177.906 260.967 169.916 253.517C161.527 245.695 157.816 234.674 157.815 222.021C157.815 209.775 161.574 199.407 169.246 191.195L169.287 191.151L169.33 191.108C176.328 184.118 185.421 179.332 196.477 177.202C196.845 177.101 197.014 176.957 197.082 176.875C197.131 176.816 197.269 176.633 197.269 176.123V165.147C197.269 158.857 202.202 153.167 209.259 153.167H209.758Z" fill="#0A97B0" stroke="#0A97B0" stroke-width="7"/>
</svg>
